# xmcd
#
# Track frame offsets:
#	150
#	12730
#	22400
#	39230
#	50570
#	62970
#	73882
#	91755
#	102800
#	116125
#	135405
#	155112
#	167770
#	178885
#
# Disc length: 2638 seconds
#
# Revision: 3
# Processed by: cddbd v1.5.2PL0 Copyright (c) Steve Scherf et al.
# Submitted via: audiograbber 1.83.01
#
DISCID=cc0a4c0e
DTITLE=Aretha Franklin - Lady  Soul
DYEAR=1968
DGENRE=Oldies
TTITLE0=Chain Of Fools
TTITLE1=Money Won't Change You
TTITLE2=People Get Ready
TTITLE3=Niki Hoeky
TTITLE4=A Natural Woman
TTITLE5=Since You've Been Gone
TTITLE6=Good To Me As I Am To You
TTITLE7=Come Back Baby
TTITLE8=Groovin'
TTITLE9=Ain't No Way
TTITLE10=Chain Of Fools
TTITLE11=A Natural Woman  (Single)
TTITLE12=Since You've Been Gone  (Single)
TTITLE13=Ain't No Way  (Single)
EXTD=
EXTT0=
EXTT1=
EXTT2=
EXTT3=
EXTT4=
EXTT5=
EXTT6=
EXTT7=
EXTT8=
EXTT9=
EXTT10=
EXTT11=
EXTT12=
EXTT13=
PLAYORDER=
